<?xml version="1.0" standalone="no"?>
<!DOCTYPE svg PUBLIC "-//W3C//DTD SVG 20010904//EN"
 "http://www.w3.org/TR/2001/REC-SVG-20010904/DTD/svg10.dtd">
<svg version="1.0" xmlns="http://www.w3.org/2000/svg"
 width="773.000000pt" height="773.000000pt" viewBox="0 0 773.000000 773.000000"
 preserveAspectRatio="xMidYMid meet">
<metadata>
Created by potrace 1.11, written by Peter Selinger 2001-2013
</metadata>
<g transform="translate(0.000000,773.000000) scale(0.100000,-0.100000)"
fill="#000000" stroke="none">
<path d="M3570 7719 c-673 -55 -1310 -277 -1865 -650 -399 -268 -776 -645
-1044 -1044 -880 -1309 -880 -3011 0 -4320 268 -399 645 -776 1044 -1044 563
-378 1196 -597 1884 -651 248 -19 553 -9 776 25 l90 14 -145 -6 c-137 -7 -461
-5 -468 2 -2 2 -30 106 -63 232 -32 125 -89 343 -125 483 -36 140 -101 390
-144 555 -42 165 -106 408 -140 540 -34 132 -88 341 -120 465 -133 517 -173
672 -206 795 -19 72 -63 243 -99 380 -147 573 -185 717 -198 745 -12 24 -15
25 -140 28 l-127 3 0 543 0 544 363 6 c199 4 783 6 1297 4 l935 -3 3 -530 c2
-291 0 -540 -3 -552 -5 -23 -7 -23 -170 -23 l-165 0 0 -36 c0 -20 11 -98 25
-175 14 -76 24 -142 23 -146 0 -4 2 -19 6 -33 4 -14 13 -63 20 -110 8 -47 28
-161 45 -255 17 -93 31 -183 31 -200 0 -17 4 -35 9 -40 5 -6 14 -44 19 -85 6
-41 20 -127 32 -190 12 -63 28 -158 36 -210 8 -52 20 -122 25 -155 6 -33 10
-67 10 -75 1 -8 5 -24 9 -35 5 -11 16 -65 25 -120 8 -55 22 -136 30 -180 9
-44 22 -120 30 -170 7 -49 23 -142 35 -205 12 -63 27 -153 34 -200 7 -47 18
-95 25 -107 23 -44 94 -19 97 34 3 52 26 188 34 198 4 6 10 39 14 75 4 36 16
115 27 175 11 61 33 190 50 289 16 98 34 187 39 197 6 10 10 35 10 57 0 22 5
64 11 93 17 87 30 163 30 181 0 10 4 20 10 23 5 4 9 23 9 43 0 49 28 212 41
235 5 10 8 21 5 25 -2 4 0 30 5 57 6 28 17 86 25 130 9 44 15 89 15 100 0 10
5 25 10 32 6 6 9 16 6 20 -5 7 34 246 64 403 14 69 28 147 34 180 2 14 7 60
11 102 l6 78 -168 2 -169 3 -1 543 c0 405 3 545 12 553 19 15 1950 7 1966 -8
15 -16 28 -17 28 -2 0 5 -26 68 -59 138 -283 620 -772 1194 -1346 1580 -721
485 -1605 719 -2455 650z"/>
<path d="M7691 4325 l-1 -60 -128 3 c-152 4 -149 6 -181 -118 -47 -183 -143
-558 -157 -610 -16 -58 -92 -353 -149 -575 -19 -71 -57 -218 -85 -325 -144
-555 -248 -956 -272 -1055 -11 -44 -35 -139 -54 -210 -19 -72 -34 -139 -34
-150 0 -10 -6 -26 -14 -34 -7 -9 -17 -27 -20 -41 -10 -35 149 131 281 295 492
612 780 1346 843 2144 17 231 9 544 -20 741 l-8 55 -1 -60z"/>
</g>
</svg>
